<svg version="1.2" xmlns="http://www.w3.org/2000/svg" viewBox="0 0 105 23" width="105" height="23">
	<defs>
		<linearGradient id="g1" x2="1" gradientUnits="userSpaceOnUse" gradientTransform="matrix(0,15.285,-98.768,0,3,7.093)">
			<stop offset="0" stop-color="#4a4a4a"/>
			<stop offset="1" stop-color="#303030"/>
		</linearGradient>
	</defs>
	<style>
		.s0 { fill: #717171 } 
		.s1 { fill: url(#g1) } 
	</style>
	<g>
		<path class="s0" d="m3 15.48q0-0.29 0.07-0.57 0.07-0.28 0.22-0.53 0.14-0.25 0.35-0.45 0.21-0.2 0.46-0.34c4.49-2.9 23.28-13.59 51.45-13.59 26.87 0 41.06 5.89 45.05 7.99q0.28 0.14 0.5 0.35 0.23 0.21 0.39 0.48 0.16 0.26 0.24 0.56 0.08 0.3 0.07 0.61c0 0.2-9.79-2.9-47.45-2.9-37.66 0-51.35 8.39-51.35 8.39z"/>
		<path class="s1" d="m3 22.38v-6.9c0 0 13.69-8.39 51.35-8.39 37.66 0 47.45 2.9 47.45 2.9v10.99c-7.69-1.3-21.18-2.6-44.06-2.6-28.47 0-45.85 2.3-54.74 4z"/>
	</g>
</svg>